<?xml version="1.0" encoding="utf-8"?>
<!-- Generator: Adobe Illustrator 22.1.0, SVG Export Plug-In . SVG Version: 6.00 Build 0)  -->
<svg version="1.1" id="Layer_1" xmlns="http://www.w3.org/2000/svg" xmlns:xlink="http://www.w3.org/1999/xlink" x="0px" y="0px"
	 width="218.7866px" height="123.8462px" viewBox="0 0 218.7866 123.8462" enable-background="new 0 0 218.7866 123.8462"
	 xml:space="preserve">
<polygon fill="#FFFFFF" points="37.4658,116.2879 34.6558,116.2879 34.6558,114.844 41.8458,114.844 41.8458,116.2879 
	39.0358,116.2879 39.0358,123.7069 37.4658,123.7069 "/>
<polygon fill="#FFFFFF" points="44.5578,114.8444 46.1148,114.8444 46.1148,118.5294 50.3438,118.5294 50.3438,114.8444 
	51.9008,114.8444 51.9008,123.7074 50.3438,123.7074 50.3438,119.9724 46.1148,119.9724 46.1148,123.7074 44.5578,123.7074 "/>
<polygon fill="#FFFFFF" points="55.2456,114.8444 61.8166,114.8444 61.8166,116.2374 56.8026,116.2374 56.8026,118.5414 
	61.2466,118.5414 61.2466,119.9344 56.8026,119.9344 56.8026,122.3144 61.8796,122.3144 61.8796,123.7074 55.2456,123.7074 "/>
<polygon fill="#FFFFFF" points="69.6559,114.8444 71.0989,114.8444 75.8469,120.9724 75.8469,114.8444 77.3789,114.8444 
	77.3789,123.7074 76.0749,123.7074 71.1879,117.4014 71.1879,123.7074 69.6559,123.7074 "/>
<path fill="#FFFFFF" d="M83.3566,114.7813h1.443l3.9,8.926h-1.646l-0.899-2.14h-4.191l-0.911,2.14h-1.595L83.3566,114.7813z
	 M85.5846,120.1873l-1.532-3.545l-1.519,3.545H85.5846z"/>
<polygon fill="#FFFFFF" points="91.815,116.2879 89.004,116.2879 89.004,114.844 96.195,114.844 96.195,116.2879 93.385,116.2879 
	93.385,123.7069 91.815,123.7069 "/>
<g>
	<path fill="#FFFFFF" d="M98.261,119.9471v-5.103h1.557v5.04c0,1.645,0.849,2.531,2.241,2.531c1.38,0,2.228-0.835,2.228-2.468
		v-5.103h1.557v5.026c0,2.647-1.494,3.976-3.81,3.976C99.729,123.8462,98.261,122.5172,98.261,119.9471"/>
	<path fill="#FFFFFF" d="M109.05,114.8445H113c1.114,0,1.988,0.33,2.557,0.886c0.469,0.482,0.734,1.14,0.734,1.912v0.026
		c0,1.456-0.873,2.329-2.113,2.684l2.392,3.355h-1.836l-2.177-3.09h-0.025h-1.925v3.09h-1.557V114.8445z M112.886,119.2375
		c1.114,0,1.823-0.582,1.823-1.481v-0.025c0-0.95-0.683-1.469-1.836-1.469h-2.266v2.975H112.886z"/>
</g>
<polygon fill="#FFFFFF" points="119.2688,114.8444 125.8398,114.8444 125.8398,116.2374 120.8258,116.2374 120.8258,118.5414 
	125.2698,118.5414 125.2698,119.9344 120.8258,119.9344 120.8258,122.3144 125.9038,122.3144 125.9038,123.7074 119.2688,123.7074 
	"/>
<rect x="134.2748" y="114.8446" fill="#FFFFFF" width="1.558" height="8.863"/>
<g>
	<path fill="#FFFFFF" d="M138.6692,122.4154l0.937-1.114c0.848,0.735,1.696,1.152,2.798,1.152c0.962,0,1.569-0.443,1.569-1.114
		v-0.025c0-0.633-0.354-0.975-2-1.355c-1.886-0.456-2.95-1.013-2.95-2.646v-0.025c0-1.519,1.266-2.571,3.026-2.571
		c1.292,0,2.317,0.393,3.216,1.115l-0.836,1.177c-0.797-0.595-1.595-0.911-2.405-0.911c-0.912,0-1.443,0.468-1.443,1.05v0.026
		c0,0.684,0.404,0.987,2.101,1.392c1.874,0.456,2.849,1.127,2.849,2.596v0.025c0,1.659-1.304,2.646-3.165,2.646
		C141.0112,123.8335,139.7322,123.3654,138.6692,122.4154"/>
</g>
<polygon fill="#FFFFFF" points="148.4326,114.8444 149.9896,114.8444 149.9896,122.2884 154.6486,122.2884 154.6486,123.7074 
	148.4326,123.7074 "/>
<path fill="#FFFFFF" d="M159.9676,114.7813h1.443l3.9,8.926h-1.646l-0.899-2.14h-4.191l-0.911,2.14h-1.595L159.9676,114.7813z
	 M162.1956,120.1873l-1.532-3.545l-1.519,3.545H162.1956z"/>
<polygon fill="#FFFFFF" points="167.8949,114.8444 169.3389,114.8444 174.0859,120.9724 174.0859,114.8444 175.6179,114.8444 
	175.6179,123.7074 174.3139,123.7074 169.4269,117.4014 169.4269,123.7074 167.8949,123.7074 "/>
<g>
	<path fill="#FFFFFF" d="M178.9631,114.8449h3.304c2.785,0,4.71,1.912,4.71,4.406v0.025c0,2.494-1.925,4.431-4.71,4.431h-3.304
		V114.8449z M182.2671,122.2888c1.862,0,3.077-1.253,3.077-2.988v-0.025c0-1.734-1.215-3.013-3.077-3.013h-1.747v6.026H182.2671z"/>
	<path fill="#FFFFFF" d="M36.745,87.1067c0,3.253-0.611,6.075-1.833,8.465c-1.223,2.39-2.813,4.35-4.772,5.877
		c-1.977,1.528-4.197,2.669-6.659,3.424c-2.462,0.754-5.005,1.132-7.629,1.132H0v-1.914c0.521,0,1.2-0.05,2.036-0.148
		c0.835-0.099,1.388-0.212,1.657-0.337c0.54-0.234,0.931-0.58,1.173-1.039c0.243-0.457,0.364-1.01,0.364-1.657v-27.606
		c0-0.611-0.104-1.159-0.31-1.644c-0.207-0.486-0.616-0.872-1.227-1.16c-0.557-0.269-1.159-0.467-1.806-0.593
		c-0.647-0.126-1.204-0.207-1.671-0.243v-1.914H16.93c2.301,0,4.565,0.356,6.794,1.065c2.228,0.711,4.169,1.667,5.823,2.871
		c2.246,1.6,4.008,3.694,5.284,6.282C36.107,80.5557,36.745,83.6027,36.745,87.1067 M30.14,87.0927c0-2.568-0.342-4.889-1.024-6.963
		c-0.684-2.074-1.681-3.883-2.993-5.428c-1.24-1.473-2.763-2.631-4.569-3.474c-1.807-0.845-3.815-1.267-6.026-1.267
		c-0.737,0-1.568,0.014-2.493,0.04c-0.926,0.028-1.614,0.05-2.063,0.068v29.388c0,1.634,0.476,2.767,1.429,3.395
		c0.953,0.628,2.417,0.942,4.394,0.942c2.283,0,4.278-0.404,5.985-1.211c1.708-0.808,3.091-1.931,4.152-3.368
		c1.114-1.508,1.927-3.255,2.44-5.239C29.884,91.9907,30.14,89.6977,30.14,87.0927"/>
	<path fill="#FFFFFF" d="M64.4873,92.4444c0,1.869-0.296,3.707-0.89,5.513c-0.594,1.806-1.44,3.338-2.537,4.597
		c-1.241,1.438-2.681,2.506-4.318,3.208c-1.637,0.7-3.472,1.051-5.505,1.051c-1.691,0-3.302-0.319-4.831-0.957
		c-1.529-0.638-2.888-1.568-4.075-2.79c-1.169-1.204-2.101-2.674-2.793-4.408c-0.693-1.734-1.039-3.68-1.039-5.836
		c0-4.152,1.21-7.549,3.63-10.191s5.591-3.963,9.513-3.963c3.724,0,6.796,1.253,9.216,3.761
		C63.2773,84.9364,64.4873,88.2744,64.4873,92.4444 M58.9073,92.4984c0-1.348-0.135-2.772-0.405-4.273
		c-0.27-1.5-0.675-2.772-1.215-3.815c-0.577-1.114-1.333-2.008-2.269-2.682c-0.937-0.674-2.08-1.011-3.43-1.011
		c-1.387,0-2.571,0.341-3.552,1.024c-0.981,0.684-1.778,1.618-2.39,2.804c-0.576,1.097-0.981,2.345-1.215,3.747
		c-0.235,1.402-0.351,2.759-0.351,4.071c0,1.725,0.139,3.321,0.418,4.785c0.279,1.465,0.725,2.773,1.337,3.922
		c0.612,1.151,1.382,2.054,2.31,2.71c0.927,0.656,2.075,0.984,3.443,0.984c2.25,0,4.033-1.087,5.347-3.262
		C58.2503,99.3284,58.9073,96.3264,58.9073,92.4984"/>
	<path fill="#FFFFFF" d="M110.5736,106.0043h-12.94v-1.779c0.413-0.036,0.831-0.072,1.253-0.108
		c0.422-0.036,0.796-0.108,1.119-0.216c0.503-0.161,0.876-0.444,1.118-0.849c0.244-0.404,0.364-0.93,0.364-1.577v-13.722
		c0-1.869-0.426-3.311-1.28-4.327c-0.853-1.015-1.919-1.523-3.194-1.523c-0.882,0-1.708,0.135-2.481,0.405
		c-0.773,0.269-1.482,0.646-2.13,1.131c-0.521,0.396-0.956,0.823-1.307,1.281c-0.35,0.459-0.616,0.841-0.795,1.146v15.34
		c0,0.629,0.108,1.145,0.324,1.55c0.215,0.404,0.584,0.714,1.105,0.93c0.412,0.162,0.785,0.283,1.119,0.364
		c0.332,0.08,0.767,0.139,1.306,0.175v1.779h-12.669v-1.779c0.412-0.036,0.813-0.072,1.199-0.108
		c0.386-0.036,0.742-0.108,1.065-0.216c0.503-0.161,0.876-0.444,1.119-0.849c0.242-0.404,0.364-0.93,0.364-1.577v-13.722
		c0-1.869-0.429-3.311-1.284-4.327c-0.856-1.015-1.923-1.523-3.202-1.523c-0.883,0-1.712,0.14-2.486,0.418
		c-0.775,0.278-1.487,0.66-2.135,1.146c-0.523,0.395-0.964,0.84-1.324,1.334c-0.361,0.495-0.631,0.867-0.811,1.119v15.231
		c0,0.612,0.126,1.124,0.377,1.537c0.252,0.414,0.63,0.728,1.133,0.944c0.377,0.18,0.763,0.315,1.159,0.405
		c0.395,0.089,0.836,0.152,1.321,0.188v1.779h-12.913v-1.779c0.413-0.036,0.839-0.072,1.28-0.108
		c0.44-0.036,0.822-0.107,1.146-0.215c0.503-0.161,0.876-0.444,1.119-0.848c0.242-0.404,0.363-0.929,0.363-1.575v-16.507
		c0-0.574-0.13-1.09-0.39-1.548c-0.261-0.457-0.625-0.848-1.092-1.171c-0.342-0.215-0.764-0.391-1.267-0.525
		c-0.503-0.135-1.025-0.22-1.564-0.256v-2.004l9.274,0.009v3.801h0.189c0.449-0.449,0.997-0.979,1.644-1.59
		c0.647-0.612,1.249-1.106,1.806-1.483c0.629-0.432,1.416-0.791,2.36-1.079c0.943-0.287,1.962-0.431,3.059-0.431
		c1.725,0,3.208,0.463,4.448,1.388c1.241,0.926,2.13,2.045,2.669,3.356c0.645-0.628,1.215-1.181,1.709-1.657
		c0.494-0.476,1.144-0.984,1.952-1.523c0.681-0.468,1.484-0.845,2.408-1.133c0.925-0.287,1.952-0.431,3.081-0.431
		c2.243,0,4.02,0.737,5.33,2.211s1.965,3.738,1.965,6.794v13.506c0,0.629,0.108,1.145,0.323,1.55
		c0.216,0.404,0.584,0.714,1.106,0.93c0.412,0.162,0.822,0.283,1.226,0.364c0.405,0.08,0.859,0.139,1.362,0.175V106.0043z"/>
	<path fill="#FFFFFF" d="M155.5727,106.0043h-12.994v-1.779c0.414-0.036,0.867-0.072,1.362-0.108
		c0.494-0.036,0.903-0.108,1.226-0.216c0.503-0.161,0.877-0.444,1.119-0.849c0.243-0.404,0.365-0.93,0.365-1.577v-13.667
		c0-1.888-0.447-3.344-1.339-4.369c-0.891-1.024-1.977-1.536-3.256-1.536c-0.955,0-1.828,0.148-2.621,0.445
		c-0.793,0.296-1.495,0.66-2.108,1.091c-0.594,0.414-1.067,0.859-1.419,1.335c-0.351,0.477-0.608,0.859-0.769,1.146v15.286
		c0,0.611,0.126,1.114,0.377,1.509c0.252,0.396,0.629,0.701,1.133,0.917c0.376,0.18,0.786,0.315,1.226,0.405
		c0.441,0.089,0.893,0.152,1.361,0.188v1.779h-13.021v-1.779c0.414-0.036,0.84-0.072,1.282-0.108
		c0.44-0.036,0.822-0.107,1.145-0.215c0.502-0.161,0.876-0.444,1.119-0.848c0.242-0.404,0.363-0.929,0.363-1.575v-16.399
		c0-0.611-0.13-1.172-0.391-1.683c-0.26-0.511-0.624-0.928-1.091-1.252c-0.342-0.215-0.746-0.373-1.214-0.471
		c-0.467-0.098-0.97-0.166-1.51-0.202v-2.004l9.221,0.009v3.747h0.134c0.432-0.432,0.971-0.948,1.618-1.55s1.258-1.092,1.833-1.469
		c0.665-0.432,1.457-0.791,2.372-1.079c0.918-0.287,1.951-0.431,3.101-0.431c2.551,0,4.444,0.795,5.675,2.386
		c1.23,1.59,1.847,3.707,1.847,6.348v13.83c0,0.629,0.108,1.137,0.324,1.523c0.215,0.387,0.583,0.688,1.104,0.904
		c0.432,0.18,0.805,0.306,1.119,0.377c0.315,0.072,0.75,0.126,1.307,0.162V106.0043z"/>
	<path fill="#FFFFFF" d="M124.3473,106.0049h-12.147v-1.779c0.039-0.036,0.466-0.072,0.907-0.108
		c0.44-0.036,0.822-0.108,1.146-0.215c0.502-0.162,0.876-0.445,1.119-0.848c0.242-0.405,0.364-0.93,0.364-1.576v-16.399
		c0-0.574-0.131-1.099-0.392-1.575c-0.26-0.475-0.624-0.875-1.091-1.198c-0.343-0.216-0.836-0.399-1.483-0.552
		c-0.647-0.152-1.24-0.247-1.779-0.283v-2.004l9.759,0.009v21.675c0,0.629,0.12,1.151,0.361,1.564
		c0.241,0.414,0.62,0.719,1.137,0.917c0.393,0.161,0.777,0.292,1.152,0.39c0.375,0.099,0.794,0.167,0.947,0.203V106.0049z
		 M121.2893,72.2838c0,1.025-0.337,1.919-1.011,2.682c-0.674,0.764-1.506,1.146-2.493,1.146c-0.918,0-1.713-0.364-2.387-1.092
		c-0.673-0.728-1.01-1.559-1.01-2.493c0-0.989,0.337-1.851,1.01-2.588c0.674-0.737,1.469-1.106,2.387-1.106
		c1.023,0,1.863,0.347,2.519,1.038C120.9603,70.5629,121.2893,71.3679,121.2893,72.2838"/>
	<path fill="#FFFFFF" d="M169.5399,106.0049h-12.645v-1.779c-0.023-0.036,0.403-0.072,0.844-0.108
		c0.441-0.036,0.823-0.108,1.146-0.215c0.503-0.162,0.876-0.445,1.119-0.848c0.242-0.405,0.364-0.93,0.364-1.576v-16.399
		c0-0.574-0.131-1.099-0.392-1.575c-0.26-0.475-0.624-0.875-1.091-1.198c-0.342-0.216-0.836-0.399-1.483-0.552
		c-0.647-0.152-1.24-0.247-1.779-0.283v-2.004l9.759,0.009v21.675c0,0.629,0.121,1.151,0.361,1.564
		c0.241,0.414,0.62,0.719,1.137,0.917c0.393,0.161,0.777,0.292,1.152,0.39c0.375,0.099,0.794,0.167,1.508,0.203V106.0049z
		 M165.921,72.2838c0,1.025-0.337,1.919-1.011,2.682c-0.674,0.764-1.506,1.146-2.493,1.146c-0.918,0-1.713-0.364-2.386-1.092
		c-0.674-0.728-1.011-1.559-1.011-2.493c0-0.989,0.337-1.851,1.011-2.588c0.673-0.737,1.468-1.106,2.386-1.106
		c1.024,0,1.864,0.347,2.52,1.038C165.593,70.5629,165.921,71.3679,165.921,72.2838"/>
	<path fill="#FFFFFF" d="M182.5032,106.7054c-3.847,0-6.8571-1.275-9.031-3.828c-2.175-2.552-3.262-5.975-3.262-10.271
		c0-1.869,0.292-3.617,0.876-5.244c0.584-1.626,1.433-3.104,2.548-4.434c1.06-1.276,2.39-2.306,3.99-3.087
		c1.6-0.782,3.343-1.173,5.229-1.173c2.606,0,4.727,0.625,6.363,1.874c1.635,1.249,2.453,2.952,2.453,5.109
		c0,0.898-0.216,1.693-0.647,2.385c-0.431,0.692-1.141,1.038-2.13,1.038c-1.06,0-1.882-0.269-2.467-0.806
		c-0.583-0.538-0.876-1.137-0.876-1.8c0-0.807,0.108-1.636,0.324-2.486c0.215-0.851,0.341-1.473,0.378-1.868
		c-0.323-0.555-0.802-0.927-1.439-1.115c-0.637-0.188-1.322-0.282-2.058-0.282c-0.859,0-1.679,0.184-2.46,0.552
		c-0.78,0.369-1.537,1.048-2.271,2.036c-0.664,0.898-1.203,2.112-1.614,3.639c-0.412,1.528-0.619,3.352-0.619,5.473
		c0,3.343,0.741,6.071,2.222,8.182c1.48,2.111,3.423,3.167,5.827,3.167c1.74,0,3.198-0.424,4.374-1.273
		c0.819-0.592,1.326-1.528,2.062-2.53c0.581-0.753,2.164,0.07,1.738,1.158c-0.697,1.33-1.647,2.407-3.498,3.723
		C186.6382,106.1805,184.5702,106.7054,182.5032,106.7054"/>
	<path fill="#FFFFFF" d="M218.7866,105.5193c-0.845,0.306-1.587,0.553-2.224,0.741c-0.638,0.189-1.362,0.284-2.17,0.284
		c-1.402,0-2.521-0.329-3.357-0.985c-0.835-0.655-1.37-1.612-1.604-2.871h-0.162c-1.168,1.294-2.422,2.283-3.76,2.966
		c-1.339,0.683-2.952,1.024-4.839,1.024c-1.995,0-3.636-0.611-4.92-1.833c-1.285-1.222-1.928-2.821-1.928-4.798
		c0-1.025,0.143-1.941,0.431-2.751c0.288-0.808,0.719-1.536,1.294-2.183c0.45-0.539,1.043-1.02,1.78-1.442
		c0.736-0.422,1.429-0.759,2.076-1.011c0.808-0.306,2.4481-0.871,4.919-1.699c2.472-0.826,4.139-1.473,5.001-1.941v-2.669
		c0-0.233-0.049-0.682-0.148-1.347c-0.099-0.665-0.31-1.294-0.633-1.888c-0.36-0.665-0.868-1.244-1.523-1.739
		c-0.656-0.494-1.586-0.741-2.79-0.741c-0.827,0-1.596,0.14-2.305,0.418c-0.711,0.279-1.21,0.57-1.497,0.876
		c0,0.36,0.086,0.89,0.256,1.591c0.171,0.7,0.256,1.348,0.256,1.941c0,0.629-0.283,1.204-0.849,1.725
		c-0.565,0.521-1.352,0.782-2.359,0.782c-0.899,0-1.559-0.319-1.981-0.957s-0.634-1.352-0.634-2.143
		c0-0.827,0.292-1.618,0.876-2.373c0.584-0.755,1.344-1.429,2.278-2.021c0.809-0.504,1.788-0.931,2.939-1.281
		c1.15-0.351,2.274-0.526,3.37-0.526c1.51,0,2.826,0.104,3.949,0.31c1.123,0.207,2.143,0.652,3.0601,1.335
		c0.916,0.665,1.613,1.568,2.089,2.709c0.477,1.142,0.715,2.611,0.715,4.407c0,2.571-0.027,4.849-0.081,6.835
		c-0.054,1.986-0.081,4.156-0.081,6.51c0,0.701,0.121,1.259,0.364,1.672s0.615,0.764,1.119,1.051
		c0.27,0.161,0.696,0.252,1.2809,0.269c0.583,0.019,1.181,0.028,1.7921,0.028V105.5193z M209.3776,91.2852
		c-1.528,0.45-2.866,0.892-4.017,1.324c-1.15,0.432-2.22,0.973-3.208,1.62c-0.898,0.613-1.609,1.339-2.129,2.176
		c-0.521,0.837-0.783,1.833-0.783,2.985c0,1.495,0.392,2.594,1.174,3.296c0.782,0.703,1.775,1.054,2.978,1.054
		c1.277,0,2.4-0.311,3.37-0.933c0.971-0.621,1.789-1.354,2.454-2.201L209.3776,91.2852z"/>
	<path fill="#FFFFFF" d="M111.0203,23.6986c-1.443-1.312-2.159-3.475-3.306-5.099c-0.875-0.8-1.604-2.5-2.479-3.3
		c0.018-0.002-1.325,0.258-1.332,0.27c1.196,1.332,3.986,9.08,2.791,12.708c-0.42,1.276-2.308,1.387-2.654,3.085
		c1.519,0.521,1.69,1.705,1.724,3.269c-0.742,0.406-2.157,0.653-3.102,1.004c1.651,2.517,1.763,3.304,1.241,7.357h-0.93v-0.669
		c-0.946-1.704-0.52-3.797-1.862-5.017v-0.334c-0.102,0.111-0.206,0.223-0.31,0.334c-1.609,1.956-3.569,3.527-3.72,7.024
		c1.987,0.266,4.525,0.264,6.512,0c0.202,0.627,0.295,1.308,0.31,2.341c-0.647,0.735-0.532,1.233-1.551,1.672v0.334
		c-0.465-0.222-1.171-0.875-1.551-1.003c-2.07-0.699-3.321,0.94-4.961-0.335c-1.379-1.071-0.43-2.872-0.93-5.016
		c-0.531-2.269-4.053-6.526-3.412-8.361c0.457-0.85,0.658-0.671,1.861-0.669c0.413,0.447,0.826,0.892,1.24,1.338
		c1.307-0.276,7.676-2.755,8.063-3.678v-3.011c-0.248-0.341-0.11-0.091-0.31-0.668c-1.119-0.571-1.828-1.28-3.101-1.672v5.016
		c-0.75,0.436-0.879,0.602-2.17,0.669c-0.448-0.893-0.619-1.412-0.621-3.01c-2.06-3.615,2.759-6.645,1.55-10.702
		c-0.824-2.77-4.032-2.683-5.892-4.347c-0.729-0.652-1.158-1.956-1.86-2.676v-1.672c0.721,0.065,0.875,0.065,1.24,0.335
		c2.307,0.889,2.502,3.138,5.583,3.344c0.653-1.149,1.048-1.609,2.79-1.672c0.525,0.382,1.519,0.356,2.481,0.334
		c-0.017,0.032,0.62-0.969,0.639-0.965c0.007,0.002,0.138-0.218-0.527-2.056c-0.358-0.992-0.443-2.276-1.069-3
		c-0.895-0.712-3.214-0.315-4.278-0.9c-0.936-0.515-1.519-1.778-2.431-2.3c-0.958-0.549-2.971-0.306-4.18-0.6
		c-1.799-0.437-3.734-0.344-5.64-0.8c-1.328-0.317-2.832-0.626-4.375-0.599c-0.964,0.949-2.532,1.37-3.694,2.099
		c-2.116,1.328-4.398,2.578-6.515,3.9c-1.143,0.714-2.42,1.107-3.501,1.9c-0.768,0.564-1.823,2.51-2.543,3.568
		c-1.404,2.063-2.062,6.353-3.97,7.931c-0.486,0.402-2.819-2.698-4.74-0.015c-0.45,0.629-6.782,6.414-7.494,6.874
		c-1.718,1.111-4.753,6.188-6.483,7.291c-0.953,0.609-12.191,5.452-12.963,6.25c-0.699,0.956,15.459-0.419,14.859,0.597
		c-0.212,0.539-0.251,1.159-0.68,1.486c-0.988,0.753-3.445,2.353-4.456,3.125c-3.607,2.749-5.936,4.942-9.545,7.689
		c-0.314,0.238-0.881,0.453-1.069,0.799c-1.285,1.469-4.896,5.796-5.084,6.234c0,0,9.459,0.04,11.726,0.04
		c4.699,0,9.077,0.126,13.775,0.126h5.542c0.622,0,1.807-0.172,2.237,0.099c0.076,0.063,0.024,0.004,0,0.101
		c-0.134,0.699-0.647,1.095-0.973,1.6c-0.69,1.066-2.278,0.65-3.241,1.435c0,0.133-1.65,2.338-1.65,2.471
		c0,0,8.301-0.006,10.822-0.006h6.088h0.316h0.441h0.316c0.664,0,1.909,0.039,2.48,0.05c0.508,0.33-6.186,2.902-6.186,2.902
		s-1.375,1.771-1.081,1.874h46.92l4.327-3.473c0,0-2.605-1.92-3.062-2.553h-0.098v-0.201c1.097-0.218,2.629-0.099,3.889-0.099h1.362
		c1.099-0.313,2.098-1.313,3.013-1.901c0.411-2.235-1.346-2.714-1.847-4.199v-21.998c-0.534-2.154-1.874-4.494-2.722-6.5
		c-0.469-1.108-0.855-2.849-1.459-3.799C112.9963,24.8307,111.7733,24.3827,111.0203,23.6986 M96.7703,59.3787
		c-0.486-0.6-0.61-0.428-0.93-1.337c-0.374-0.706-0.15-0.746,0-1.672c0.543-0.211,0.301-0.065,0.62-0.335
		c0.517,0.112,1.033,0.224,1.55,0.335c0.346,0.828,0.524,1.081,0.62,2.341C97.9233,59.1207,97.9333,59.2577,96.7703,59.3787
		 M102.1673,55.0877c-0.395,0.292-1.039,0.287-1.781,0.279c-1.169-1.269-3.174-1.481-3.305-3.902
		c0.627-0.29,1.559-0.624,2.033-1.115c1.3,0.552,2.626,0.278,4.07,0.557C103.3363,51.3877,102.9313,53.9016,102.1673,55.0877
		 M166.4883,54.6896h13.3199c0.684,0,20.515-0.1,20.515-0.1c0.064,0-3.513-2.604-4.322-3.854c-2.532-0.104-6.043,1.632-6.043,1.632
		l-5.874,0.278c0,0-4.867-1.564-5.053-1.755c-3.565-3.7-4.749-4.094-8.314-7.793c-0.566-0.326-1.331-0.13-2.041-0.3
		c-1.43-0.344-3.149-0.452-4.57-0.8c-0.669-0.165-1.442,0.023-1.945-0.3c-0.903-0.117-1.213-1.091-1.653-1.7
		c-0.897-1.248-1.907-2.422-2.819-3.7c-0.687-0.962-1.339-2.259-2.352-2.904c-1.569-1-1.53-1.129-3.089-2.135
		c-0.545-0.352-2.427-1.38-2.936-1.771c-0.595-0.454-4.39-1.979-4.811-1.979c-0.962-0.284-3.037-1.809-3.923-2.21
		c-2.545-1.151-4.571-2.534-7.066-3.623c-1.204-0.525-2.228-0.833-3.848-1.666c-0.856-0.439-1.817-0.574-2.056-0.82
		c-0.239-0.246-1.966-0.363-2.101-0.19c-0.758,1.009-2.737,2.285-3.793,3.099c-0.716,0.553-1.302,1.46-1.846,2.2
		c-0.519,0.533-1.037,1.067-1.555,1.6c-0.775,1.054-3.306,3.599-3.306,3.599l0.475,1.059c0,0,2.513,1.991,3.025,2.341
		c1.04,0.711,2.057,1.912,2.528,3.2c0.928,2.543,0.658,5.878,1.264,8.699c0.064,1,0.194,3,0.194,3l1.264,2.2v6.199l0.097,2.099
		l3.379,2.198l5.469,0.694c0,0-6.841,4.71-6.122,5.347h28.606c3.953,0,13.392-2.438,13.392-2.438l0.39-0.301
		c0,0-0.732-0.874-1.168-1.3c-1.119-1.095-4.708-5.463-5.784-6.605C161.3123,55.8836,165.7243,54.6896,166.4883,54.6896"/>
</g>
</svg>
